<?xml version="1.0" encoding="utf-8"?>
<!-- Svg Vector Icons : http://www.onlinewebfonts.com/icon -->
<!DOCTYPE svg PUBLIC "-//W3C//DTD SVG 1.1//EN" "http://www.w3.org/Graphics/SVG/1.1/DTD/svg11.dtd">
<svg version="1.1" xmlns="http://www.w3.org/2000/svg" xmlns:xlink="http://www.w3.org/1999/xlink" x="0px" y="0px" viewBox="0 0 1000 1000" enable-background="new 0 0 1000 1000" xml:space="preserve">
<metadata> Svg Vector Icons : http://www.onlinewebfonts.com/icon </metadata>
<g><path d="M769.1,647.2H647.2V451.7h-98.9v195.5H426.4l172.5,172.5L769.1,647.2z M230.9,352.7h121.9v195.5h98.9V352.7h121.9L401.1,180.2L230.9,352.7z M500,10c135,0,250.4,47.9,346.2,143.8C942.1,249.6,990,365,990,500c0,135-47.9,250.4-143.8,346.2C750.4,942.1,635,990,500,990c-135,0-250.4-47.9-346.2-143.8C57.9,750.4,10,635,10,500c0-135,47.9-250.4,143.8-346.2C249.6,57.9,365,10,500,10L500,10z"/></g>
</svg>